<svg width="24" height="25" viewBox="0 0 24 25" fill="none" xmlns="http://www.w3.org/2000/svg">
<path d="M22.675 0.183594H1.325C0.593 0.183594 0 0.796764 0 1.55366V23.6309C0 24.3868 0.593 24.9999 1.325 24.9999H12.82V15.3898H9.692V11.6446H12.82V8.88275C12.82 5.67731 14.713 3.93189 17.479 3.93189C18.804 3.93189 19.942 4.03426 20.274 4.07976V7.42996L18.356 7.431C16.852 7.431 16.561 8.17032 16.561 9.25396V11.6456H20.148L19.681 15.3908H16.561V24.9999H22.677C23.407 24.9999 24 24.3867 24 23.6299V1.55366C24 0.796764 23.407 0.183594 22.675 0.183594Z" fill="white"/>
</svg>
