<svg width="404" height="338" viewBox="0 0 404 338" fill="none" xmlns="http://www.w3.org/2000/svg">
<g clip-path="url(#clip0_3_164)">
<path d="M319.578 165.488C318.706 160.294 318.307 155.613 317.142 151.128C308.767 120.595 287.02 102.203 254.905 93.3202C237.819 88.5496 219.944 88.6789 201.656 94.4585C184.308 99.9555 170.154 109.672 159.839 124.035C141.938 149.144 146.946 179.861 171.323 194.872C182.256 201.598 194.977 204.988 208.307 206.572C240.391 210.214 271.278 204.131 301.166 187.85C303.066 186.898 304.794 186.032 307.386 184.734C307.026 186.604 307.034 187.914 306.621 189.247C300.808 206.988 289.133 221.657 273.033 233.099C228.234 264.92 180.921 273.598 132.005 257.924C105.24 249.366 85.2141 233.115 74.5712 208.411C66.8897 190.483 62.9648 171.424 62.699 151.472C62.6386 149.625 62.8262 147.842 62.9386 145.908C62.9836 145.135 63.2766 144.425 63.6896 143.092C64.9821 143.946 66.1242 144.501 66.748 145.315C71.3095 150.539 75.4503 155.786 80.0119 161.01C81.1842 162.488 82.6045 164.029 84.3929 165.011C85.3622 165.651 87.962 165.663 88.6757 164.931C89.735 164.025 90.0202 162.005 90.3581 160.521C90.4782 159.898 89.7569 159.321 89.2834 158.807C81.2049 149.15 72.9535 139.579 64.7021 130.008C60.5388 125.148 57.4207 125.395 52.748 130.739C51.6662 132.031 50.682 133.087 49.6754 134.53C41.1342 147.255 32.5929 159.979 24.4724 172.681C21.8958 176.599 19.9655 180.945 18.2079 185.204C17.4267 187.097 17.0438 189.354 17.3521 191.264C17.4575 192.338 19.0506 193.792 20.3881 193.873C21.5527 194.041 23.0552 192.725 24.4376 192.033C24.956 191.773 25.0762 191.15 25.1963 190.527C29.8229 177.322 38.7174 165.735 46.4473 153.98C48.5582 150.858 50.5715 147.972 53.5913 143.644C53.8997 145.555 54.0275 146.241 53.9074 146.865C52.5653 167.059 56.4901 186.117 63.0597 204.415C76.8829 243.669 108.721 264.517 152.264 271.618C187.752 277.31 222.795 270.46 256.363 252.898C272.111 244.636 286.31 234.146 297.669 220.574C307.405 208.94 314.188 196.157 316.928 182.208C317.747 178.232 319.662 175.583 322.938 172.628C329.391 166.956 335.77 161.134 341.006 154.757C364.437 126.88 366.626 94.998 346.223 69.3627C327.165 45.1185 299.866 34.1993 264.928 37.8056C258.346 38.4738 251.923 40.7524 245.273 42.5807C242.974 43.1689 240.705 44.6807 238.782 46.0193C237.204 47.1848 236.423 49.0778 237.768 50.469C238.64 51.3464 240.473 51.5545 241.713 51.8722C242.209 51.9993 242.825 51.503 243.343 51.2434C261.097 43.1032 278.454 43.2335 295.413 47.3172C317.827 52.7987 334.832 64.7432 344.948 84.0799C353.711 100.715 352.947 118.18 344.091 136.318C338.683 147.098 329.293 158.559 319.578 165.488ZM292.156 184.102C269.962 195.029 246.843 200.225 223.145 199.516C208.486 199.161 194.533 196.764 181.871 190.903C151.83 176.665 151.922 141.891 173.904 120.183C185.474 108.757 199.471 101.748 215.625 99.4767C246.573 95.2405 271.384 104.214 291.156 123.408C303.705 135.52 310.034 150.746 310.435 168.378C310.555 172.072 309.158 174.461 305.777 176.342C301.014 178.915 296.671 181.465 292.156 184.102Z" fill="#FFE99B"/>
</g>
<defs>
<clipPath id="clip0_3_164">
<rect width="350.254" height="201.792" fill="white" transform="matrix(-0.894139 0.447789 0.447789 0.894139 313.176 0)"/>
</clipPath>
</defs>
</svg>
