<svg width="24" height="25" viewBox="0 0 24 25" fill="none" xmlns="http://www.w3.org/2000/svg">
<path fill-rule="evenodd" clip-rule="evenodd" d="M12 0.183594C8.741 0.183594 8.333 0.19807 7.053 0.258043C2.695 0.464845 0.273 2.96509 0.073 7.47546C0.014 8.80003 0 9.22191 0 12.5918C0 15.9616 0.014 16.3845 0.072 17.7081C0.272 22.2143 2.69 24.7187 7.052 24.9255C8.333 24.9854 8.741 24.9999 12 24.9999C15.259 24.9999 15.668 24.9854 16.948 24.9255C21.302 24.7187 23.73 22.2184 23.927 17.7081C23.986 16.3845 24 15.9616 24 12.5918C24 9.22191 23.986 8.80003 23.928 7.47649C23.732 2.9744 21.311 0.465879 16.949 0.259077C15.668 0.19807 15.259 0.183594 12 0.183594ZM12 2.42017C15.204 2.42017 15.584 2.43257 16.85 2.49255C20.102 2.64558 21.621 4.24106 21.769 7.57886C21.827 8.88689 21.838 9.27981 21.838 12.5928C21.838 15.9068 21.826 16.2987 21.769 17.6067C21.62 20.9414 20.105 22.54 16.85 22.693C15.584 22.753 15.206 22.7654 12 22.7654C8.796 22.7654 8.416 22.753 7.151 22.693C3.891 22.539 2.38 20.9362 2.232 17.6057C2.174 16.2977 2.162 15.9058 2.162 12.5918C2.162 9.27878 2.175 8.88689 2.232 7.57783C2.381 4.24106 3.896 2.64455 7.151 2.49151C8.417 2.43257 8.796 2.42017 12 2.42017ZM5.838 12.5918C5.838 9.07301 8.597 6.22016 12 6.22016C15.403 6.22016 18.162 9.07301 18.162 12.5918C18.162 16.1115 15.403 18.9644 12 18.9644C8.597 18.9644 5.838 16.1105 5.838 12.5918ZM12 16.7278C9.791 16.7278 8 14.8769 8 12.5918C8 10.3076 9.791 8.4557 12 8.4557C14.209 8.4557 16 10.3076 16 12.5918C16 14.8769 14.209 16.7278 12 16.7278ZM16.965 5.9689C16.965 5.14686 17.61 4.47992 18.406 4.47992C19.201 4.47992 19.845 5.14686 19.845 5.9689C19.845 6.79094 19.201 7.45788 18.406 7.45788C17.61 7.45788 16.965 6.79094 16.965 5.9689Z" fill="white"/>
</svg>
