<svg width="75" height="75" viewBox="0 0 75 75" fill="none" xmlns="http://www.w3.org/2000/svg">
<path d="M45.4688 51.7187L34.375 40.625V25H40.625V38.0469L49.8438 47.2656L45.4688 51.7187ZM34.375 18.75V12.5H40.625V18.75H34.375ZM56.25 40.625V34.375H62.5V40.625H56.25ZM34.375 62.5V56.25H40.625V62.5H34.375ZM12.5 40.625V34.375H18.75V40.625H12.5ZM37.5 68.75C33.1771 68.75 29.1146 67.9292 25.3125 66.2875C21.5104 64.6479 18.2031 62.4219 15.3906 59.6094C12.5781 56.7969 10.3521 53.4896 8.7125 49.6875C7.07083 45.8854 6.25 41.8229 6.25 37.5C6.25 33.1771 7.07083 29.1146 8.7125 25.3125C10.3521 21.5104 12.5781 18.2031 15.3906 15.3906C18.2031 12.5781 21.5104 10.351 25.3125 8.70937C29.1146 7.06979 33.1771 6.25 37.5 6.25C41.8229 6.25 45.8854 7.06979 49.6875 8.70937C53.4896 10.351 56.7969 12.5781 59.6094 15.3906C62.4219 18.2031 64.6479 21.5104 66.2875 25.3125C67.9292 29.1146 68.75 33.1771 68.75 37.5C68.75 41.8229 67.9292 45.8854 66.2875 49.6875C64.6479 53.4896 62.4219 56.7969 59.6094 59.6094C56.7969 62.4219 53.4896 64.6479 49.6875 66.2875C45.8854 67.9292 41.8229 68.75 37.5 68.75ZM37.5 62.5C44.4792 62.5 50.3906 60.0781 55.2344 55.2344C60.0781 50.3906 62.5 44.4792 62.5 37.5C62.5 30.5208 60.0781 24.6094 55.2344 19.7656C50.3906 14.9219 44.4792 12.5 37.5 12.5C30.5208 12.5 24.6094 14.9219 19.7656 19.7656C14.9219 24.6094 12.5 30.5208 12.5 37.5C12.5 44.4792 14.9219 50.3906 19.7656 55.2344C24.6094 60.0781 30.5208 62.5 37.5 62.5Z" fill="#231B3B" fill-opacity="0.26"/>
</svg>
