<svg width="24" height="21" viewBox="0 0 24 21" fill="none" xmlns="http://www.w3.org/2000/svg">
<path d="M24 2.89535C23.117 3.30068 22.168 3.57366 21.172 3.69671C22.189 3.067 22.97 2.06917 23.337 0.880057C22.386 1.46324 21.332 1.88719 20.21 2.1157C19.313 1.12615 18.032 0.507812 16.616 0.507812C13.437 0.507812 11.101 3.5747 11.819 6.75842C7.728 6.54645 4.1 4.51979 1.671 1.43946C0.381 3.72773 1.002 6.7212 3.194 8.23706C2.388 8.21018 1.628 7.98166 0.965 7.60011C0.911 9.9587 2.546 12.1653 4.914 12.6564C4.221 12.8508 3.462 12.8963 2.69 12.7433C3.316 14.7658 5.134 16.2372 7.29 16.2786C5.22 17.9568 2.612 18.7065 0 18.388C2.179 19.8325 4.768 20.6752 7.548 20.6752C16.69 20.6752 21.855 12.6916 21.543 5.53105C22.505 4.81241 23.34 3.91592 24 2.89535Z" fill="white"/>
</svg>
