<svg width="385" height="389" viewBox="0 0 385 389" fill="none" xmlns="http://www.w3.org/2000/svg">
<g clip-path="url(#clip0_3_156)">
<path d="M272.703 113.453H5.34174V383.592H272.703V113.453Z" fill="#FF7EFF"/>
<path d="M272.703 113.453V383.603L379.658 275.547V5.40833H112.286L5.35271 113.453H272.703Z" fill="#FFC107"/>
<path d="M0 111.225V389H274.919L385 277.786V0H110.081L0 111.225ZM278.056 370.559V334.318L290.22 322.028L297.777 314.381L343.692 267.967L351.26 260.32L374.295 237.046V273.286L278.056 370.559ZM343.692 252.717L336.189 260.353L290.22 306.756L282.662 314.392L278.056 319.047V280.257L290.22 267.967L297.777 260.32L343.692 213.939L351.26 206.292L374.295 183.018V221.808L343.692 252.717ZM343.692 198.689L336.189 206.325L290.275 252.717L282.717 260.353L278.11 265.008V226.218L290.275 213.928L297.832 206.281L343.747 159.9L351.315 152.253L374.349 128.98V167.769L343.692 198.689ZM343.692 144.661L336.189 152.297L290.275 198.689L282.717 206.325L278.11 210.98V172.191L290.275 159.9L297.832 152.253L343.747 105.872L351.315 98.2253L374.349 74.9518V113.741L343.692 144.661ZM343.692 90.6337L336.189 98.2696L290.275 144.661L282.717 152.297L278.11 156.952V118.163L290.275 105.872L297.832 98.2253L343.692 51.8556L351.26 44.2086L374.295 20.9351V59.7243L343.692 90.6337ZM343.692 36.6059L336.189 44.2418L290.22 90.6448L282.662 98.2807L272.977 108.067H234.587L236.704 105.928L244.272 98.2807L290.22 51.8556L297.777 44.2086L330.881 10.8499H369.271L343.692 36.6059ZM290.22 36.6059L282.662 44.2418L236.748 90.6448L229.19 98.2807L219.505 108.067H181.115L183.231 105.928L190.8 98.2807L236.748 51.8556L244.316 44.2086L277.408 10.8499H315.799L290.22 36.6059ZM236.748 36.6059L229.19 44.2418L183.275 90.6448L175.718 98.2807L166.033 108.067H127.642L129.759 105.928L137.317 98.2807L183.275 51.8556L190.844 44.2086L223.936 10.8499H262.327L236.748 36.6059ZM183.275 36.6059L175.718 44.2418L129.803 90.6448L122.301 98.2696L112.615 108.056H74.2249L76.3419 105.917L83.8993 98.2696L129.803 51.8556L137.361 44.2086L170.464 10.8499H208.854L183.275 36.6059ZM129.803 36.6059L122.301 44.2418L76.3309 90.6448L68.7735 98.2807L59.0882 108.067H20.6979L22.8148 105.928L30.3722 98.2807L76.3309 51.8556L83.8883 44.2086L116.992 10.8499H155.382L129.803 36.6059ZM10.6944 118.861H267.361V378.194H10.6944V118.861Z" fill="#231B3B"/>
</g>
<defs>
<clipPath id="clip0_3_156">
<rect width="385" height="389" fill="white"/>
</clipPath>
</defs>
</svg>
